<svg width="1092" height="154" viewBox="0 0 1092 154" fill="none" xmlns="http://www.w3.org/2000/svg">
<path d="M90.7102 74.9091C90.7102 84.7434 88.8461 93.1098 85.1179 100.009C81.419 106.907 76.3698 112.177 69.9702 115.817C63.5999 119.428 56.437 121.233 48.4815 121.233C40.4673 121.233 33.2751 119.413 26.9048 115.773C20.5346 112.133 15.5 106.863 11.8011 99.9645C8.10227 93.0658 6.25284 84.714 6.25284 74.9091C6.25284 65.0748 8.10227 56.7083 11.8011 49.8097C15.5 42.911 20.5346 37.6562 26.9048 34.0455C33.2751 30.4053 40.4673 28.5852 48.4815 28.5852C56.437 28.5852 63.5999 30.4053 69.9702 34.0455C76.3698 37.6562 81.419 42.911 85.1179 49.8097C88.8461 56.7083 90.7102 65.0748 90.7102 74.9091ZM71.3793 74.9091C71.3793 68.5388 70.4252 63.1667 68.517 58.7926C66.6383 54.4186 63.9815 51.1013 60.5469 48.8409C57.1122 46.5805 53.0904 45.4503 48.4815 45.4503C43.8726 45.4503 39.8509 46.5805 36.4162 48.8409C32.9815 51.1013 30.3101 54.4186 28.402 58.7926C26.5232 63.1667 25.5838 68.5388 25.5838 74.9091C25.5838 81.2794 26.5232 86.6515 28.402 91.0256C30.3101 95.3996 32.9815 98.7169 36.4162 100.977C39.8509 103.238 43.8726 104.368 48.4815 104.368C53.0904 104.368 57.1122 103.238 60.5469 100.977C63.9815 98.7169 66.6383 95.3996 68.517 91.0256C70.4252 86.6515 71.3793 81.2794 71.3793 74.9091ZM180.265 29.8182V120H163.796L124.561 63.2401H123.901V120H104.834V29.8182H121.567L160.493 86.5341H161.286V29.8182H180.265ZM196.018 120V29.8182H232.126C238.76 29.8182 244.294 30.8016 248.727 32.7685C253.159 34.7353 256.491 37.4654 258.722 40.9588C260.953 44.4228 262.069 48.4152 262.069 52.9361C262.069 56.4588 261.364 59.5559 259.955 62.2273C258.546 64.8693 256.609 67.0417 254.143 68.7443C251.706 70.4176 248.917 71.6065 245.776 72.3111V73.1918C249.211 73.3385 252.425 74.3073 255.42 76.098C258.443 77.8887 260.895 80.3987 262.773 83.6278C264.652 86.8276 265.592 90.6439 265.592 95.0767C265.592 99.8617 264.403 104.133 262.025 107.891C259.676 111.619 256.198 114.569 251.589 116.741C246.98 118.914 241.299 120 234.548 120H196.018ZM215.085 104.412H230.629C235.942 104.412 239.817 103.399 242.254 101.374C244.69 99.3187 245.908 96.5885 245.908 93.1832C245.908 90.688 245.307 88.4863 244.103 86.5781C242.899 84.67 241.182 83.1728 238.951 82.0866C236.749 81.0005 234.122 80.4574 231.069 80.4574H215.085V104.412ZM215.085 67.5554H229.219C231.832 67.5554 234.151 67.1004 236.177 66.1903C238.232 65.2509 239.846 63.9299 241.021 62.2273C242.224 60.5246 242.826 58.4844 242.826 56.1065C242.826 52.848 241.666 50.2206 239.347 48.2244C237.058 46.2282 233.799 45.2301 229.572 45.2301H215.085V67.5554ZM379.64 120H359.208L390.34 29.8182H414.911L445.999 120H425.567L402.978 50.4261H402.273L379.64 120ZM378.363 84.5526H426.624V99.4361H378.363V84.5526ZM456.854 120V29.8182H492.433C499.244 29.8182 505.056 31.0365 509.871 33.473C514.714 35.8802 518.399 39.3002 520.923 43.733C523.477 48.1364 524.754 53.3177 524.754 59.277C524.754 65.2656 523.463 70.4176 520.879 74.733C518.296 79.0189 514.553 82.3068 509.651 84.5966C504.777 86.8864 498.877 88.0312 491.949 88.0312H468.126V72.7074H488.866C492.507 72.7074 495.53 72.2083 497.938 71.2102C500.345 70.2121 502.135 68.715 503.31 66.7188C504.513 64.7225 505.115 62.2419 505.115 59.277C505.115 56.2827 504.513 53.758 503.31 51.7031C502.135 49.6482 500.33 48.0923 497.893 47.0355C495.486 45.9493 492.448 45.4062 488.778 45.4062H475.92V120H456.854ZM505.555 78.9602L527.969 120H506.92L484.991 78.9602H505.555ZM570.197 120H538.229V29.8182H570.462C579.533 29.8182 587.341 31.6236 593.888 35.2344C600.434 38.8158 605.469 43.9678 608.991 50.6903C612.544 57.4129 614.32 65.4564 614.32 74.821C614.32 84.215 612.544 92.2879 608.991 99.0398C605.469 105.792 600.405 110.973 593.8 114.584C587.224 118.195 579.357 120 570.197 120ZM557.295 103.663H569.405C575.041 103.663 579.782 102.665 583.628 100.669C587.503 98.6435 590.409 95.517 592.347 91.2898C594.313 87.0331 595.297 81.5436 595.297 74.821C595.297 68.1572 594.313 62.7116 592.347 58.4844C590.409 54.2571 587.518 51.1454 583.672 49.1491C579.826 47.1529 575.085 46.1548 569.449 46.1548H557.295V103.663ZM647.51 29.8182V120H628.444V29.8182H647.51ZM738.628 29.8182V120H722.159L682.925 63.2401H682.264V120H663.197V29.8182H679.93L718.857 86.5341H719.649V29.8182H738.628ZM814.179 58.9688C813.563 56.8258 812.697 54.9323 811.581 53.2883C810.466 51.6151 809.101 50.206 807.486 49.0611C805.901 47.8868 804.081 46.9915 802.026 46.375C800 45.7585 797.755 45.4503 795.289 45.4503C790.68 45.4503 786.629 46.5952 783.135 48.8849C779.671 51.1747 776.971 54.5066 775.033 58.8807C773.096 63.2254 772.127 68.5388 772.127 74.821C772.127 81.1032 773.081 86.446 774.989 90.8494C776.897 95.2528 779.598 98.6141 783.091 100.933C786.585 103.223 790.709 104.368 795.465 104.368C799.78 104.368 803.464 103.605 806.517 102.078C809.6 100.522 811.948 98.3352 813.563 95.517C815.207 92.6989 816.029 89.3669 816.029 85.5213L819.904 86.0938H796.654V71.7386H834.391V83.0994C834.391 91.0256 832.718 97.8362 829.371 103.531C826.025 109.197 821.416 113.571 815.544 116.653C809.673 119.706 802.951 121.233 795.377 121.233C786.922 121.233 779.495 119.369 773.096 115.641C766.696 111.883 761.705 106.555 758.124 99.6562C754.572 92.7282 752.796 84.5085 752.796 74.9972C752.796 67.6875 753.853 61.1705 755.966 55.446C758.109 49.6922 761.104 44.8191 764.949 40.8267C768.795 36.8343 773.272 33.7959 778.38 31.7116C783.488 29.6274 789.021 28.5852 794.98 28.5852C800.088 28.5852 804.844 29.3338 809.248 30.831C813.651 32.2988 817.555 34.383 820.961 37.0838C824.395 39.7846 827.199 42.999 829.371 46.7273C831.543 50.4261 832.938 54.5066 833.554 58.9688H814.179ZM900.013 120V134.223H840.787V120H900.013ZM907.807 120V29.8182H926.874V104.28H965.536V120H907.807ZM997.229 29.8182V120H978.162V29.8182H997.229ZM1012.92 120V29.8182H1049.02C1055.66 29.8182 1061.19 30.8016 1065.62 32.7685C1070.06 34.7353 1073.39 37.4654 1075.62 40.9588C1077.85 44.4228 1078.97 48.4152 1078.97 52.9361C1078.97 56.4588 1078.26 59.5559 1076.85 62.2273C1075.44 64.8693 1073.51 67.0417 1071.04 68.7443C1068.6 70.4176 1065.82 71.6065 1062.67 72.3111V73.1918C1066.11 73.3385 1069.32 74.3073 1072.32 76.098C1075.34 77.8887 1077.79 80.3987 1079.67 83.6278C1081.55 86.8276 1082.49 90.6439 1082.49 95.0767C1082.49 99.8617 1081.3 104.133 1078.92 107.891C1076.57 111.619 1073.1 114.569 1068.49 116.741C1063.88 118.914 1058.2 120 1051.45 120H1012.92ZM1031.98 104.412H1047.53C1052.84 104.412 1056.72 103.399 1059.15 101.374C1061.59 99.3187 1062.81 96.5885 1062.81 93.1832C1062.81 90.688 1062.21 88.4863 1061 86.5781C1059.8 84.67 1058.08 83.1728 1055.85 82.0866C1053.65 81.0005 1051.02 80.4574 1047.97 80.4574H1031.98V104.412ZM1031.98 67.5554H1046.12C1048.73 67.5554 1051.05 67.1004 1053.08 66.1903C1055.13 65.2509 1056.74 63.9299 1057.92 62.2273C1059.12 60.5246 1059.72 58.4844 1059.72 56.1065C1059.72 52.848 1058.56 50.2206 1056.25 48.2244C1053.96 46.2282 1050.7 45.2301 1046.47 45.2301H1031.98V67.5554Z" fill="black"/>
<path d="M317 121.5V93.0625M317 93.0625C319.741 93.0646 322.471 92.7206 325.125 92.0387M317 93.0625C314.259 93.0646 311.529 92.7206 308.875 92.0387M329.188 132.545C321.134 134.074 312.866 134.074 304.813 132.545M325.125 145.453C319.723 146.018 314.277 146.018 308.875 145.453M329.188 121.5V120.46C329.188 115.135 332.752 110.585 337.356 107.915C345.091 103.436 351.133 96.5304 354.545 88.269C357.958 80.0076 358.55 70.8514 356.231 62.2191C353.912 53.5868 348.811 45.9603 341.718 40.5213C334.625 35.0822 325.936 32.1343 316.997 32.1343C308.059 32.1343 299.37 35.0822 292.277 40.5213C285.184 45.9603 280.083 53.5868 277.763 62.2191C275.444 70.8514 276.037 80.0076 279.449 88.269C282.862 96.5304 288.904 103.436 296.639 107.915C301.243 110.585 304.813 115.135 304.813 120.46V121.5" stroke="#FFC53D" stroke-width="11" stroke-linecap="round" stroke-linejoin="round"/>
</svg>
